<?xml version="1.0" encoding="utf-8"?>
<!-- Generator: Adobe Illustrator 26.3.1, SVG Export Plug-In . SVG Version: 6.00 Build 0)  -->
<svg version="1.1" id="레이어_1" xmlns="http://www.w3.org/2000/svg" xmlns:xlink="http://www.w3.org/1999/xlink" x="0px"
	 y="0px" viewBox="0 0 48 48" style="enable-background:new 0 0 48 48;" xml:space="preserve">
<style type="text/css">
	.st0{fill:#324996;}
</style>
<path class="st0" d="M24,40c-2.7,0-5.3-0.5-7.8-1.6c-2.4-1-4.6-2.5-6.4-4.3s-3.2-3.9-4.3-6.4C4.4,25.2,4,22.7,4,20
	c0-2.8,0.5-5.5,1.6-7.9S8.1,7.5,10,5.7s4-3.2,6.5-4.2s5.1-1.5,8-1.5c2.6,0,5.1,0.4,7.5,1.3s4.4,2.1,6.2,3.7s3.2,3.4,4.2,5.6
	c1.1,2.2,1.6,4.5,1.6,7.1c0,3.6-1,6.4-3.2,8.5c-2.1,2.1-4.9,3.1-8.3,3.1h-3.8c-0.6,0-1.1,0.2-1.5,0.7s-0.7,1-0.7,1.5
	c0,0.9,0.2,1.7,0.7,2.3s0.7,1.4,0.7,2.2c0,1.3-0.4,2.2-1,2.9C26.2,39.7,25.3,40,24,40z M24,20L24,20L24,20L24,20L24,20L24,20L24,20
	L24,20L24,20L24,20L24,20L24,20L24,20L24,20L24,20z M12.4,21.3c0.7,0,1.3-0.3,1.8-0.8s0.8-1.1,0.8-1.8c0-0.7-0.2-1.3-0.8-1.8
	c-0.5-0.5-1.1-0.8-1.8-0.8s-1.2,0.2-1.8,0.8c-0.5,0.5-0.8,1.1-0.8,1.8s0.2,1.2,0.8,1.8C11.1,21,11.7,21.3,12.4,21.3z M18.6,12.8
	c0.7,0,1.2-0.2,1.8-0.8c0.5-0.5,0.8-1.1,0.8-1.7c0-0.7-0.2-1.2-0.8-1.8s-1.1-0.8-1.8-0.8c-0.7,0-1.2,0.2-1.8,0.8S16,9.6,16,10.3
	s0.2,1.2,0.8,1.7C17.4,12.5,18,12.8,18.6,12.8z M29.4,12.8c0.7,0,1.2-0.2,1.8-0.8c0.5-0.5,0.8-1.1,0.8-1.7c0-0.7-0.2-1.2-0.8-1.8
	s-1.1-0.8-1.8-0.8c-0.7,0-1.2,0.2-1.8,0.8s-0.8,1.1-0.8,1.8s0.2,1.2,0.8,1.7C28.1,12.5,28.7,12.8,29.4,12.8z M35.9,21.3
	c0.7,0,1.2-0.3,1.8-0.8c0.5-0.5,0.8-1.1,0.8-1.8c0-0.7-0.2-1.3-0.8-1.8c-0.5-0.5-1.1-0.8-1.8-0.8s-1.2,0.2-1.8,0.8
	c-0.5,0.5-0.8,1.1-0.8,1.8s0.2,1.2,0.8,1.8C34.7,21,35.2,21.3,35.9,21.3z M24,37c0.4,0,0.6-0.1,0.8-0.2c0.2-0.2,0.2-0.4,0.2-0.7
	c0-0.5-0.2-0.9-0.7-1.3s-0.7-1.3-0.7-2.7c0-1.5,0.5-2.9,1.5-4c1-1.2,2.3-1.8,3.8-1.8h3.6c2.5,0,4.6-0.7,6.2-2.2
	c1.6-1.5,2.3-3.6,2.3-6.4c0-4.4-1.7-7.9-5-10.6s-7.2-4-11.5-4c-4.9,0-9,1.6-12.4,4.9S7,15.2,7,20c0,4.7,1.7,8.7,5,12S19.3,37,24,37z
	"/>
</svg>
