<?xml version="1.0" encoding="utf-8"?>
<!-- Generator: Adobe Illustrator 26.3.1, SVG Export Plug-In . SVG Version: 6.00 Build 0)  -->
<svg version="1.1" id="레이어_1" xmlns="http://www.w3.org/2000/svg" xmlns:xlink="http://www.w3.org/1999/xlink" x="0px"
	 y="0px" viewBox="0 0 48 48" style="enable-background:new 0 0 48 48;" xml:space="preserve">
<style type="text/css">
	.st0{fill:#324996;}
</style>
<path class="st0" d="M15.9,31.5H32v-3H15.9V31.5z M15.9,23H32v-3H15.9V23z M11,40c-0.8,0-1.5-0.3-2.1-0.9C8.3,38.5,8,37.8,8,37V3
	c0-0.8,0.3-1.5,0.9-2.1C9.5,0.3,10.2,0,11,0h18l11,10.9v26c0,0.8-0.3,1.5-0.9,2.1c-0.6,0.7-1.3,1-2.1,1H11z M27.5,12.3V3H11l0,0l0,0
	v34l0,0l0,0h26l0,0l0,0V12.3H27.5z M11,3v9.3V3v9.3V37l0,0l0,0l0,0l0,0V3L11,3L11,3z"/>
</svg>
