<?xml version="1.0" encoding="utf-8"?>
<!-- Generator: Adobe Illustrator 26.3.1, SVG Export Plug-In . SVG Version: 6.00 Build 0)  -->
<svg version="1.1" id="레이어_1" xmlns="http://www.w3.org/2000/svg" xmlns:xlink="http://www.w3.org/1999/xlink" x="0px"
	 y="0px" viewBox="0 0 48 48" style="enable-background:new 0 0 48 48;" xml:space="preserve">
<style type="text/css">
	.st0{fill:#324996;}
</style>
<path class="st0" d="M7.3,28c-1.3,0-2.3-0.4-3-1.3c-0.7-0.8-1-2-0.8-3.5L6,6.5c0.3-1.8,1.1-3.3,2.5-4.6s3-1.9,4.7-1.9h21.6
	c1.8,0,3.3,0.6,4.7,1.9s2.2,2.8,2.5,4.6l2.4,16.8c0.2,1.5-0.1,2.7-0.8,3.5c-0.7,0.9-1.7,1.3-3,1.3c-0.8,0-1.4-0.1-2-0.4
	s-1-0.6-1.4-0.9L32,21.6H15.9l-5.2,5.2c-0.4,0.4-0.8,0.7-1.3,0.9C8.8,27.9,8.1,28,7.3,28z M8.2,24.8l6.3-6.3h18.9l6.3,6.3
	c0.2,0.2,0.5,0.3,0.9,0.5c0.3,0,0.5-0.1,0.7-0.5c0.2-0.3,0.2-0.6,0.1-0.9L39,7c-0.2-1.2-0.7-2.1-1.5-2.9C36.7,3.4,35.8,3,34.8,3
	H13.1c-1,0-1.9,0.4-2.7,1.1C9.6,4.8,9.1,5.8,8.9,7L6.5,24c-0.1,0.3,0,0.6,0.1,0.9c0.2,0.3,0.4,0.5,0.7,0.5
	C7.6,25.2,7.9,25.1,8.2,24.8z M35,16c0.5,0,1-0.2,1.4-0.6C36.8,15,37,14.5,37,14s-0.2-1-0.6-1.4C36,12.2,35.5,12,35,12
	s-1,0.2-1.4,0.6C33.2,13,33,13.5,33,14s0.2,1,0.6,1.4C34,15.8,34.5,16,35,16z M30.8,9.5c0.5,0,1-0.2,1.4-0.6s0.6-0.9,0.6-1.4
	s-0.2-1-0.6-1.4c-0.4-0.4-0.9-0.6-1.4-0.6s-1,0.2-1.4,0.6C29,6.5,28.8,7,28.8,7.5s0.2,1,0.6,1.4C29.8,9.3,30.2,9.5,30.8,9.5z
	 M15,15.8h2.5V12h3.8V9.5h-3.8V5.7H15v3.8h-3.8V12H15V15.8z M24,14.1L24,14.1L24,14.1L24,14.1L24,14.1L24,14.1L24,14.1L24,14.1
	L24,14.1L24,14.1L24,14.1L24,14.1L24,14.1z"/>
</svg>
