<?xml version="1.0" encoding="utf-8"?>
<!-- Generator: Adobe Illustrator 26.3.1, SVG Export Plug-In . SVG Version: 6.00 Build 0)  -->
<svg version="1.1" id="레이어_1" xmlns="http://www.w3.org/2000/svg" xmlns:xlink="http://www.w3.org/1999/xlink" x="0px"
	 y="0px" viewBox="0 0 48 48" style="enable-background:new 0 0 48 48;" xml:space="preserve">
<style type="text/css">
	.st0{fill:#324996;}
</style>
<path class="st0" d="M18.5,36v-4.5H12v-3h4.5v-21H12v-3h6.5V0h3v4.5H27V0h3v4.6c1.8,0.4,3.2,1.3,4.3,2.7s1.7,3,1.7,4.7
	c0,0.9-0.2,1.9-0.5,2.8c-0.4,0.9-0.9,1.7-1.6,2.5c1.3,0.7,2.3,1.6,3.1,2.8c0.7,1.2,1.1,2.5,1.1,3.9c0,2.1-0.7,3.8-2.2,5.3
	s-3.2,2.2-5.3,2.2H30V36h-3v-4.5h-5.5V36H18.5z M19.5,16.5h9c1.3,0,2.3-0.4,3.2-1.3S33,13.3,33,12c0-1.3-0.4-2.3-1.3-3.2
	c-0.9-0.9-1.9-1.3-3.2-1.3h-9V16.5z M19.5,28.5h11c1.3,0,2.3-0.4,3.2-1.3c0.9-0.9,1.3-1.9,1.3-3.2c0-1.3-0.4-2.3-1.3-3.2
	c-0.9-0.9-1.9-1.3-3.2-1.3h-11V28.5z"/>
</svg>
