<?xml version="1.0" encoding="utf-8"?>
<!-- Generator: Adobe Illustrator 26.3.1, SVG Export Plug-In . SVG Version: 6.00 Build 0)  -->
<svg version="1.1" id="레이어_1" xmlns="http://www.w3.org/2000/svg" xmlns:xlink="http://www.w3.org/1999/xlink" x="0px"
	 y="0px" viewBox="0 0 48 48" style="enable-background:new 0 0 48 48;" xml:space="preserve">
<style type="text/css">
	.st0{fill:#324996;}
</style>
<path class="st0" d="M23.7,14.8c0.9-1.1,1.5-2.2,1.9-3.3c0.4-1.1,0.6-2.4,0.6-3.9s-0.2-2.8-0.6-4s-1.1-2.2-1.9-3.3
	c2.5-0.6,4.8-0.2,6.7,1.2s2.9,3.4,2.9,6.1s-1,4.8-2.9,6.1C28.5,15,26.2,15.4,23.7,14.8z M34.5,31.1v-4.7c0-1.7-0.4-3.3-1.3-4.8
	c-0.9-1.5-2.4-2.7-4.5-3.7c5.8,0.7,9.7,1.8,11.8,3.2c2.1,1.4,3.2,3.2,3.2,5.2v4.8H34.5z M40,16.6v-5h-5v-3h5v-5h3v5h5v3h-5v5H40z
	 M15.8,15.1c-2.2,0-4-0.7-5.4-2.1S8.3,9.8,8.3,7.6s0.7-4,2.1-5.4s3.2-2.1,5.4-2.1s4,0.7,5.4,2.1s2.1,3.2,2.1,5.4s-0.7,4-2.1,5.4
	C19.8,14.3,17.9,15.1,15.8,15.1z M0,31.1v-4.7c0-1.2,0.3-2.2,0.9-3.2c0.6-0.9,1.4-1.7,2.5-2.1c2.4-1.1,4.5-1.8,6.4-2.3
	s3.9-0.7,5.9-0.7s4,0.2,5.9,0.7s4,1.2,6.4,2.3c1,0.5,1.9,1.2,2.5,2.1c0.6,1,1,2,1,3.2v4.7H0z M15.8,12.1c1.3,0,2.4-0.4,3.2-1.3
	s1.3-1.9,1.3-3.2S19.9,5.2,19,4.4c-0.9-0.9-1.9-1.3-3.2-1.3s-2.4,0.4-3.2,1.3c-0.8,0.8-1.3,1.9-1.3,3.2s0.4,2.4,1.3,3.2
	C13.4,11.6,14.4,12.1,15.8,12.1z M3,28.1h25.5v-1.7c0-0.5-0.1-1-0.4-1.5s-0.7-0.8-1.2-1.1c-2.3-1.1-4.2-1.8-5.9-2.2
	c-1.6-0.4-3.4-0.5-5.2-0.5s-3.6,0.2-5.2,0.5C9,22,7,22.7,4.7,23.8c-0.5,0.2-0.9,0.6-1.2,1.1S3,25.9,3,26.4V28.1z M15.8,7.6L15.8,7.6
	L15.8,7.6L15.8,7.6L15.8,7.6L15.8,7.6L15.8,7.6L15.8,7.6L15.8,7.6z M15.8,28.1L15.8,28.1L15.8,28.1L15.8,28.1L15.8,28.1L15.8,28.1
	L15.8,28.1L15.8,28.1L15.8,28.1z"/>
</svg>
