<?xml version="1.0" encoding="utf-8"?>
<!-- Generator: Adobe Illustrator 26.3.1, SVG Export Plug-In . SVG Version: 6.00 Build 0)  -->
<svg version="1.1" id="레이어_1" xmlns="http://www.w3.org/2000/svg" xmlns:xlink="http://www.w3.org/1999/xlink" x="0px"
	 y="0px" viewBox="0 0 48 48" style="enable-background:new 0 0 48 48;" xml:space="preserve">
<style type="text/css">
	.st0{fill:#324996;}
</style>
<path class="st0" d="M18.5,36v-6.3h-3.6c-0.8,0-1.5-0.3-2.1-0.9s-0.9-1.3-0.9-2.1v-5.6h-2c-0.7,0-1.2-0.3-1.5-0.9s-0.3-1.3,0.1-2
	l3.4-6.2c0.9-3.6,2.6-6.5,5.1-8.7S22.6,0,26,0c3.8,0,7.1,1.4,9.9,4.1s4.1,6,4.1,9.9c0,2.8-0.8,5.3-2.3,7.5c-1.6,2.2-3.7,3.9-6.4,5.2
	V36H18.5z M21.5,33h6.8v-8.2l1.4-0.6c2.2-1,4-2.4,5.4-4.2s2-3.7,2-5.9c0-3-1.1-5.6-3.2-7.8C31.6,4.1,29,3,26,3s-5.5,1-7.6,3
	s-3.2,4.2-3.4,6.6l-3,5.5h2.9v8.6h6.6V33z M24.5,21.3h3l0.1-2.2c0.5-0.1,0.9-0.3,1.2-0.5c0.3-0.2,0.6-0.4,0.9-0.7l2.1,0.7l1.4-2.4
	L31.6,15c0.2-0.5,0.2-0.9,0.2-1.4s-0.1-1-0.2-1.5l1.5-1.2l-1.4-2.4l-2.1,0.7c-0.2-0.2-0.5-0.4-0.9-0.6c-0.3-0.2-0.7-0.4-1.2-0.5
	l-0.1-2.2h-3l-0.2,2.2c-0.4,0.1-0.8,0.3-1.2,0.5S22.4,9,22.1,9.2L20,8.5L18.8,11l1.5,1.2c-0.2,0.5-0.2,1-0.2,1.5s0.1,1,0.2,1.4
	l-1.5,1.2l1.4,2.4l2.1-0.7c0.2,0.2,0.5,0.5,0.9,0.7c0.3,0.2,0.7,0.4,1.2,0.5L24.5,21.3z M26,17.1c-1,0-1.8-0.3-2.5-1s-1-1.5-1-2.5
	s0.3-1.8,1-2.5s1.5-1,2.5-1s1.8,0.3,2.5,1s1,1.5,1,2.5s-0.3,1.8-1,2.5S26.9,17.1,26,17.1z M24.5,18L24.5,18L24.5,18L24.5,18L24.5,18
	L24.5,18L24.5,18z"/>
</svg>
