<?xml version="1.0" encoding="utf-8"?>
<!-- Generator: Adobe Illustrator 26.3.1, SVG Export Plug-In . SVG Version: 6.00 Build 0)  -->
<svg version="1.1" id="레이어_1" xmlns="http://www.w3.org/2000/svg" xmlns:xlink="http://www.w3.org/1999/xlink" x="0px"
	 y="0px" viewBox="0 0 48 48" style="enable-background:new 0 0 48 48;" xml:space="preserve">
<style type="text/css">
	.st0{fill:#324996;}
</style>
<path class="st0" d="M35.8,40H13.6V14.4L27.5,0l2,1.5c0.2,0.2,0.4,0.4,0.4,0.7C30,2.5,30,2.9,30,3.3v0.5l-2.2,10.5h15
	c0.8,0,1.5,0.3,2.1,0.9s0.9,1.3,0.9,2.1v4.1c0,0.2,0,0.5,0.1,0.7c0,0.2,0,0.5-0.1,0.7l-6.3,14.5c-0.3,0.7-0.8,1.3-1.5,1.8
	C37.3,39.8,36.6,40,35.8,40z M16.6,37h19.9l0,0l0,0l6.3-15v-4.6l0,0l0,0H24.1L26.7,5L16.6,15.6V37z M16.6,15.6v1.8l0,0l0,0V22v15
	l0,0l0,0V15.6z M13.6,14.4v3H6.9V37h6.7v3H4V14.4H13.6z"/>
</svg>
