<?xml version="1.0" encoding="utf-8"?>
<!-- Generator: Adobe Illustrator 26.3.1, SVG Export Plug-In . SVG Version: 6.00 Build 0)  -->
<svg version="1.1" id="레이어_1" xmlns="http://www.w3.org/2000/svg" xmlns:xlink="http://www.w3.org/1999/xlink" x="0px"
	 y="0px" viewBox="0 0 48 48" style="enable-background:new 0 0 48 48;" xml:space="preserve">
<style type="text/css">
	.st0{fill:#324996;}
</style>
<path class="st0" d="M24,7.3c-1,0-1.9-0.4-2.6-1.1c-0.7-0.7-1.1-1.6-1.1-2.6s0.4-1.9,1.1-2.6C22.1,0.4,23,0,24,0s1.9,0.4,2.6,1.1
	c0.7,0.7,1.1,1.6,1.1,2.6s-0.4,1.9-1.1,2.6C25.9,6.9,25,7.3,24,7.3z M18.8,38V13.3c-2.1-0.2-4.2-0.4-6.3-0.7
	c-2.1-0.3-4.1-0.7-5.9-1.2l0.8-3c2.7,0.7,5.4,1.2,8.2,1.5s5.7,0.4,8.5,0.4s5.7-0.1,8.5-0.4s5.6-0.8,8.2-1.5l0.8,3
	c-1.8,0.5-3.8,0.9-6,1.2c-2.1,0.3-4.3,0.6-6.3,0.7V38h-3V25.8h-4.4V38H18.8z M15.9,48c-0.6,0-1-0.2-1.4-0.5
	c-0.4-0.3-0.5-0.8-0.5-1.4c0-0.6,0.2-1,0.5-1.4c0.3-0.3,0.8-0.5,1.4-0.5c0.6,0,1,0.2,1.4,0.5c0.3,0.4,0.5,0.8,0.5,1.4
	c0,0.6-0.2,1-0.5,1.4C16.9,47.8,16.4,48,15.9,48z M24,48c-0.6,0-1-0.2-1.4-0.5c-0.4-0.3-0.5-0.8-0.5-1.4c0-0.6,0.2-1,0.5-1.4
	c0.4-0.3,0.8-0.5,1.4-0.5s1,0.2,1.4,0.5c0.4,0.4,0.5,0.8,0.5,1.4c0,0.6-0.2,1-0.5,1.4C25.1,47.8,24.6,48,24,48z M32.2,48
	c-0.6,0-1-0.2-1.4-0.5c-0.4-0.3-0.5-0.8-0.5-1.4c0-0.6,0.2-1,0.5-1.4c0.4-0.3,0.8-0.5,1.4-0.5s1,0.2,1.4,0.5
	c0.4,0.4,0.5,0.8,0.5,1.4c0,0.6-0.2,1-0.5,1.4C33.3,47.8,32.8,48,32.2,48z"/>
</svg>
