<?xml version="1.0" encoding="utf-8"?>
<!-- Generator: Adobe Illustrator 26.3.1, SVG Export Plug-In . SVG Version: 6.00 Build 0)  -->
<svg version="1.1" id="레이어_1" xmlns="http://www.w3.org/2000/svg" xmlns:xlink="http://www.w3.org/1999/xlink" x="0px"
	 y="0px" viewBox="0 0 48 48" style="enable-background:new 0 0 48 48;" xml:space="preserve">
<style type="text/css">
	.st0{fill:#324996;}
</style>
<path class="st0" d="M4,30V2.1c0-0.5,0.2-0.9,0.7-1.4S5.5,0,6,0h26c0.5,0,1,0.2,1.4,0.7C33.8,1.1,34,1.6,34,2.1v17.8
	c0,0.5-0.2,0.9-0.7,1.4C32.9,21.8,32.5,22,32,22H12L4,30z M14.1,32c-0.5,0-0.9-0.2-1.4-0.7S12,30.4,12,29.9V25h25V8h5
	c0.5,0,0.9,0.2,1.3,0.7c0.4,0.5,0.7,0.9,0.7,1.4V40l-8-8H14.1z M31,3H7v19.8l3.8-3.8H31V3z M7,3v16v3.8V3z"/>
</svg>
