<?xml version="1.0" encoding="utf-8"?>
<!-- Generator: Adobe Illustrator 26.3.1, SVG Export Plug-In . SVG Version: 6.00 Build 0)  -->
<svg version="1.1" id="레이어_1" xmlns="http://www.w3.org/2000/svg" xmlns:xlink="http://www.w3.org/1999/xlink" x="0px"
	 y="0px" viewBox="0 0 48 48" style="enable-background:new 0 0 48 48;" xml:space="preserve">
<style type="text/css">
	.st0{fill:#324996;}
</style>
<path class="st0" d="M13,10.7h-3V3c0-0.8,0.3-1.5,0.9-2.1C11.5,0.3,12.2,0,13,0h22c0.8,0,1.5,0.3,2.1,0.9C37.7,1.5,38,2.2,38,3v7.7
	h-3V7.5H13V10.7z M10,32.7h3v3.8h22v-3.8h3V41c0,0.8-0.3,1.5-0.9,2.1C36.5,43.7,35.8,44,35,44H13c-0.8,0-1.5-0.3-2.1-0.9
	C10.3,42.5,10,41.8,10,41V32.7z M30.8,31.2L28.7,29l7-7l-7-7l2.1-2.2L40,22L30.8,31.2z M17.2,31.2L8,22l9.2-9.2l2.1,2.2l-7,7l7,7
	L17.2,31.2z M13,39.5V41l0,0l0,0h22l0,0l0,0v-1.5H13z M13,41L13,41L13,41v-1.5V41L13,41L13,41z M13,4.5h22V3l0,0l0,0H13l0,0l0,0V4.5
	z M13,3L13,3L13,3v1.5V3L13,3L13,3z"/>
</svg>
